:SAMPLES-PER-SECOND 30
:FULLY-SPECIFIED
:DEGREES
1510
root  -7.80024 38.8232 0.922252 161.12 -81.4005 -165.78
RightUpLeg  7.31222 -5.68732 0.218762
RightLeg  17.8765 4.68355 1.2985
RightFoot  -17.7482 -0.202416 -1.46465
RightToes  9.54606e-009 0 -3.6325e-017
Spine  6.26376 -0.802888 8.58524
Spine1  5.71649 0.258959 -3.17522
HEad  -17.0074 -3.12628 -8.31778
LeftShoulder1  -0.673739 5.21317 -33.2565
LeftArm  -4.38475 10.9955 -39.6861
LeftForeArm  32.7791 -8.23048 -8.16901
LeftHand  -0.358247 10.9915 -5.83985
RightShoulder  -0.931527 -6.2085 27.8742
RightArm  12.2393 -3.08968 42.7298
RightForeArm  16.7514 44.3656 9.80397
RightHand  -0.0844862 4.22981 -1.2953
LeftUpLeg  -20.773 3.45947 4.86822
LeftLeg  16.1213 1.28314 0.770292
LeftFoot  2.7117 0.894178 -7.38151
LeftToes  -8.26734e-010 9.74065e-011 1.64617e-011
1511
root  -9.30924 38.4046 1.11983 156.696 -80.7064 -161.309
RightUpLeg  9.39365 -5.9821 0.0493481
RightLeg  18.9361 5.47009 1.52382
RightFoot  -20.398 -0.208168 -0.902258
RightToes  9.54606e-009 0 -3.6325e-017
Spine  6.07114 -1.05707 8.56503
Spine1  5.29244 -0.38347 -1.54258
HEad  -17.3408 -2.75081 -7.73888
LeftShoulder1  -0.659201 5.18254 -33.1091
LeftArm  -4.44797 11.1209 -39.7888
LeftForeArm  31.7868 -8.1118 -8.21834
LeftHand  -0.139895 9.55759 -2.44734
RightShoulder  -0.941046 -6.22118 28.0641
RightArm  12.5742 -2.93319 42.5152
RightForeArm  17.4015 46.6902 10.647
RightHand  -0.0729024 4.1322 -1.1601
LeftUpLeg  -23.0781 4.00037 6.11186
LeftLeg  13.9812 1.77481 0.884814
LeftFoot  1.82576 0.779255 -6.85061
LeftToes  -8.26734e-010 9.74065e-011 1.64617e-011
1512
root  -10.8661 38.0715 1.29233 158.135 -79.8166 -163.091
RightUpLeg  12.3901 -5.56525 -0.957605
RightLeg  18.822 6.1695 1.44916
RightFoot  -22.4447 -0.133092 0.202972
RightToes  9.54606e-009 0 -3.6325e-017
Spine  6.21688 -1.05184 7.6925
Spine1  4.90121 -0.486162 -1.03102
HEad  -17.6404 -2.71938 -7.33678
LeftShoulder1  -0.586734 5.01532 -32.6591
LeftArm  -4.68971 11.0666 -39.6582
LeftForeArm  31.9521 -7.76655 -8.18965
LeftHand  -0.188136 10.6963 -2.69137
RightShoulder  -1.01099 -6.38381 28.5556
RightArm  12.7916 -3.44614 42.1837
RightForeArm  17.5053 48.7064 11.4796
RightHand  -0.0893732 4.88956 -1.31
LeftUpLeg  -24.3016 4.56241 6.71423
LeftLeg  13.1832 1.62241 0.833577
LeftFoot  2.15428 0.639857 -5.49719
LeftToes  -8.26734e-010 9.74065e-011 1.64617e-011
1513
root  -12.4252 37.8007 1.4803 160.554 -78.9064 -165.728
RightUpLeg  15.2217 -4.85239 -2.27531
RightLeg  18.4908 6.88454 1.47937
RightFoot  -23.5834 0.0039233 1.51874
RightToes  9.54606e-009 0 -3.6325e-017
Spine  6.29539 -1.05891 6.5699
Spine1  4.42294 -0.489717 -1.09368
HEad  -17.1455 -2.36041 -6.51682
LeftShoulder1  -0.565433 4.97453 -32.2619
LeftArm  -4.8262 10.975 -39.2429
LeftForeArm  32.5102 -7.45121 -8.19293
LeftHand  -0.137795 9.54586 -2.27593
RightShoulder  -1.03869 -6.44029 28.8198
RightArm  12.9501 -4.60117 42.2498
RightForeArm  18.1971 50.1447 12.0695
RightHand  -0.0405536 4.64557 -0.755719
LeftUpLeg  -24.975 4.87981 7.01655
LeftLeg  13.9841 1.55411 0.838714
LeftFoot  3.08244 0.442281 -3.62045
LeftToes  -8.26734e-010 9.74065e-011 1.64617e-011
1514
root  -13.9656 37.6148 1.70747 165.308 -78.0092 -170.607
RightUpLeg  17.5657 -2.60929 -3.81081
RightLeg  18.3704 6.5427 1.57643
RightFoot  -24.0006 0.286587 4.05276
RightToes  9.54606e-009 0 -3.6325e-017
Spine  5.34086 -0.987018 4.57572
Spine1  5.36536 -0.47671 -1.15488
HEad  -16.8622 -2.13997 -6.38914
LeftShoulder1  -0.677455 5.23434 -32.9964
LeftArm  -4.80514 10.049 -38.1964
LeftForeArm  32.4877 -7.41421 -8.18028
LeftHand  -0.149551 9.85271 -2.38073
RightShoulder  -0.958455 -6.25786 28.2298
RightArm  13.1657 -5.80917 43.0598
RightForeArm  18.6935 50.688 12.2854
RightHand  -0.00618023 3.98661 -0.348283
LeftUpLeg  -25.0735 4.98021 6.2796
LeftLeg  16.2748 3.01704 1.35128
LeftFoot  7.75534 0.25351 -1.9258
LeftToes  -8.26734e-010 9.74065e-011 1.64617e-011
1515
root  -15.431 37.5458 1.92491 172.602 -77.3808 -178.369
RightUpLeg  19.3439 0.847075 -5.61033
RightLeg  19.5038 5.186 1.78791
RightFoot  -23.3229 0.677867 7.93968
RightToes  9.54606e-009 0 -3.6325e-017
Spine  5.5851 -0.849513 1.52952
Spine1  5.28928 -0.343707 -1.83183
HEad  -16.4332 -2.76138 -6.22128
LeftShoulder1  -0.649521 5.167 -32.8471
LeftArm  -4.92631 9.3113 -37.6667
LeftForeArm  31.5302 -7.24487 -8.18798
LeftHand  -0.128136 10.2682 -1.62784
RightShoulder  -1.07202 -6.51353 29.0951
RightArm  13.9981 -6.96549 42.641
RightForeArm  18.3404 50.4133 12.1848
RightHand  -0.0151545 4.60089 -0.466948
LeftUpLeg  -24.4185 5.71395 3.9495
LeftLeg  19.6982 3.28328 1.64111
LeftFoot  11.0057 -0.471125 2.13112
LeftToes  -8.26734e-010 9.74065e-011 1.64617e-011
